<?xml version="1.0" encoding="UTF-8" standalone="no"?>
<!DOCTYPE svg PUBLIC "-//W3C//DTD SVG 1.1//EN" "http://www.w3.org/Graphics/SVG/1.1/DTD/svg11.dtd">
<svg width="100%" height="100%" viewBox="0 0 16 16" version="1.1" xmlns="http://www.w3.org/2000/svg" xmlns:xlink="http://www.w3.org/1999/xlink" xml:space="preserve" xmlns:serif="http://www.serif.com/" style="fill-rule:evenodd;clip-rule:evenodd;stroke-linejoin:round;stroke-miterlimit:2;">
    <g>
        <g transform="matrix(1,0,0,4,0,-15)">
            <rect x="1" y="5" width="1" height="1" style="fill:rgb(212,118,149);"/>
        </g>
        <rect x="2" y="9" width="1" height="1" style="fill:rgb(212,118,149);"/>
        <rect x="3" y="10" width="1" height="1" style="fill:rgb(212,118,149);"/>
        <rect x="4" y="11" width="1" height="1" style="fill:rgb(212,118,149);"/>
        <rect x="5" y="12" width="1" height="1" style="fill:rgb(212,118,149);"/>
        <rect x="6" y="13" width="1" height="1" style="fill:rgb(212,118,149);"/>
        <rect x="7" y="14" width="1" height="1" style="fill:rgb(212,118,149);"/>
        <rect x="8" y="13" width="1" height="1" style="fill:rgb(212,118,149);"/>
        <rect x="9" y="12" width="1" height="1" style="fill:rgb(212,118,149);"/>
        <rect x="10" y="11" width="1" height="1" style="fill:rgb(212,118,149);"/>
        <rect x="11" y="10" width="1" height="1" style="fill:rgb(212,118,149);"/>
        <rect x="12" y="9" width="1" height="1" style="fill:rgb(212,118,149);"/>
        <rect x="13" y="5" width="1" height="4" style="fill:rgb(212,118,149);"/>
        <rect x="2" y="4" width="1" height="1" style="fill:rgb(212,118,149);"/>
        <rect x="3" y="3" width="3" height="1" style="fill:rgb(212,118,149);"/>
        <rect x="6" y="4" width="1" height="1" style="fill:rgb(212,118,149);"/>
        <rect x="7" y="5" width="1" height="1" style="fill:rgb(212,118,149);"/>
        <rect x="8" y="4" width="1" height="1" style="fill:rgb(212,118,149);"/>
        <rect x="9" y="3" width="3" height="1" style="fill:rgb(212,118,149);"/>
        <rect x="12" y="4" width="1" height="1" style="fill:rgb(212,118,149);"/>
    </g>
    <g id="Layer1">
        <rect x="3" y="4" width="3" height="1" style="fill:rgb(227,158,180);"/>
        <rect x="9" y="4" width="3" height="1" style="fill:rgb(227,158,180);"/>
        <rect x="2" y="5" width="5" height="4" style="fill:rgb(227,158,180);"/>
        <g transform="matrix(1.25,0,0,1,-3.25,0)">
            <rect x="9" y="5" width="4" height="4" style="fill:rgb(227,158,180);"/>
        </g>
        <rect x="7" y="6" width="1" height="8" style="fill:rgb(227,158,180);"/>
        <rect x="6" y="9" width="1" height="4" style="fill:rgb(227,158,180);"/>
        <rect x="5" y="9" width="1" height="3" style="fill:rgb(227,158,180);"/>
        <rect x="4" y="9" width="1" height="2" style="fill:rgb(227,158,180);"/>
        <rect x="3" y="9" width="1" height="1" style="fill:rgb(227,158,180);"/>
        <rect x="8" y="9" width="1" height="4" style="fill:rgb(227,158,180);"/>
        <rect x="9" y="9" width="1" height="3" style="fill:rgb(227,158,180);"/>
        <rect x="10" y="9" width="1" height="2" style="fill:rgb(227,158,180);"/>
        <rect x="11" y="9" width="1" height="1" style="fill:rgb(227,158,180);"/>
    </g>
    <g id="Layer2">
        <rect x="4" y="4" width="1" height="2" style="fill:rgb(255,226,236);"/>
        <rect x="3" y="5" width="1" height="3" style="fill:rgb(255,226,236);"/>
        <rect x="2" y="6" width="1" height="1" style="fill:rgb(255,226,236);"/>
    </g>
</svg>
